Coordinates
version=1
nRows=25
nColumns=28
inDegrees=yes

Units are S.I. units (second, meters, Newtons, ...)
Angles are in degrees.

endheader
time	pelvis_tilt	pelvis_list	pelvis_rotation	pelvis_tx	pelvis_ty	pelvis_tz	hip_flexion_r	hip_adduction_r	hip_rotation_r	knee_angle_r	ankle_angle_r	subtalar_angle_r	mtp_angle_r	hip_flexion_l	hip_adduction_l	hip_rotation_l	knee_angle_l	socket_flexion	socket_adduction	socket_rotation	socket_tx	socket_ty	socket_tz	foot_flex	lumbar_extension	lumbar_bending	lumbar_rotation
      0.00000000	      0.52755810	     -7.79725144	    -10.46324635	     -0.90897424	      0.99018140	      0.32422644	    -27.44344673	      8.39007789	      7.82740473	     -3.15041321	     12.11058265	     -2.50822739	      4.74606657	     34.82545431	     -8.45290158	      8.00774803	    -12.98044622	      0.00000000	      0.00000000	      0.00000000	      0.00000000	     -0.00024104	      0.00000000	     -0.11796783	    -12.31551901	      4.97075527	     13.76420954
      0.00416667	      0.45475778	     -7.82970266	    -10.42053640	     -0.90334937	      0.98937596	      0.32391874	    -27.56266526	      8.40604854	      7.90052913	     -3.36233621	     12.06179594	     -2.50155418	      4.74550609	     34.67128573	     -8.36708928	      8.03994194	    -13.02562194	      0.00000000	      0.00000000	      0.00000000	      0.00000000	     -0.00058737	      0.00000000	     -0.24570215	    -12.17420275	      4.99161989	     13.77030682
      0.00833333	      0.37028025	     -8.06895183	    -10.54293385	     -0.89783247	      0.98864992	      0.32370543	    -27.48501618	      8.57347290	      8.00344660	     -4.02181887	     11.84472114	     -2.63884495	      4.83667605	     34.40574864	     -8.55644657	      8.20928527	    -12.89380794	      0.00000000	      0.00000000	      0.00000000	      0.00000000	     -0.00146806	      0.00000000	     -0.75890430	    -12.18276607	      5.22757493	     13.94722844
      0.01250000	      0.28748732	     -8.10391269	    -10.50749384	     -0.89171443	      0.98779316	      0.32339812	    -27.59616934	      8.58680404	      8.07216415	     -4.27370521	     11.78783708	     -2.64720454	      4.83620450	     34.22846718	     -8.46940531	      8.24769141	    -12.93706604	      0.00000000	      0.00000000	      0.00000000	      0.00000000	     -0.00193273	      0.00000000	     -0.87337094	    -12.02326365	      5.25418286	     13.95088693
      0.01666667	      0.18546750	     -8.21749154	    -10.58578964	     -0.88565580	      0.98705309	      0.32325471	    -27.49046338	      8.65329461	      8.08032374	     -4.93602637	     11.53582931	     -2.78964198	      4.82929867	     33.93601862	     -8.52178412	      8.42316481	    -12.75304165	      0.00000000	      0.00000000	      0.00000000	      0.00000000	     -0.00280757	      0.00000000	     -1.43602370	    -11.94896998	      5.33639473	     13.97402993
      0.02083333	      0.08203770	     -8.34687359	    -10.64837070	     -0.87948416	      0.98627277	      0.32301260	    -27.42215354	      8.73511986	      8.13126028	     -5.53870745	     11.32376572	     -2.91451204	      4.84348697	     33.70604953	     -8.56964197	      8.54937946	    -12.71393096	      0.00000000	      0.00000000	      0.00000000	      0.00000000	     -0.00355536	      0.00000000	     -1.77558654	    -11.85287899	      5.46302791	     14.02643145
      0.02500000	     -0.04327035	     -8.49965080	    -10.70346975	     -0.87316661	      0.98549428	      0.32272258	    -27.32859375	      8.84327152	      8.22036360	     -6.15885934	     11.09566224	     -3.06180597	      4.87665111	     33.50274719	     -8.63508547	      8.68133626	    -12.69746195	      0.00000000	      0.00000000	      0.00000000	      0.00000000	     -0.00438216	      0.00000000	     -2.11184724	    -11.73048842	      5.62096372	     14.10432013
      0.02916667	     -0.15728387	     -8.57084373	    -10.70194341	     -0.86669181	      0.98475354	      0.32243126	    -27.27995549	      8.89617212	      8.36126364	     -6.68839790	     10.90108261	     -3.14075706	      4.88912318	     33.28124646	     -8.59061943	      8.84172722	    -12.67057769	      0.00000000	      0.00000000	      0.00000000	      0.00000000	     -0.00509936	      0.00000000	     -2.35750108	    -11.58862502	      5.68218254	     14.13992827
      0.03333333	     -0.78422047	     -8.96174489	    -10.97911175	     -0.86045278	      0.98347546	      0.32226664	    -26.65878162	      9.28436201	      9.05357855	     -7.42759836	     10.29224577	     -4.12228046	      5.51473642	     33.62420787	     -9.01515493	      9.17506191	    -12.80250247	      0.00000000	      0.00000000	      0.00000000	      0.00000000	     -0.00603126	      0.00000000	     -2.69489686	    -10.97926445	      6.21288359	     14.57606310
      0.03750000	     -0.85716123	     -9.01129199	    -10.99380837	     -0.85388282	      0.98290614	      0.32199128	    -26.57301479	      9.30135393	      9.08415472	     -8.07605922	      9.94358931	     -4.29372809	      5.55165468	     33.35232454	     -8.95678361	      9.31452088	    -12.79984973	      0.00000000	      0.00000000	      0.00000000	      0.00000000	     -0.00682967	      0.00000000	     -3.03239582	    -10.87946390	      6.24022051	     14.52390767
      0.04166667	     -0.94389072	     -9.05572047	    -10.98179859	     -0.84729083	      0.98235668	      0.32170178	    -26.46457159	      9.33202254	      9.18848107	     -8.73638468	      9.61089962	     -4.42596584	      5.57395280	     33.10845395	     -8.88208766	      9.48133867	    -12.81504422	      0.00000000	      0.00000000	      0.00000000	      0.00000000	     -0.00761152	      0.00000000	     -3.33431827	    -10.76436007	      6.25371922	     14.49913286
      0.04583333	     -1.03432149	     -9.07919214	    -10.98803228	     -0.84070144	      0.98188322	      0.32144038	    -26.33605977	      9.33432345	      9.31261345	     -9.39938290	      9.26825889	     -4.54556156	      5.57954986	     32.86845295	     -8.79207705	      9.68084336	    -12.86034236	      0.00000000	      0.00000000	      0.00000000	      0.00000000	     -0.00835033	      0.00000000	     -3.59787389	    -10.63915946	      6.23265593	     14.47342783
      0.05000000	     -1.12809574	     -9.10261490	    -10.98776389	     -0.83411870	      0.98150532	      0.32114601	    -26.14151838	      9.34730328	      9.41206950	    -10.16803581	      8.85337110	     -4.71975815	      5.58054804	     32.64670825	     -8.70245826	      9.84468440	    -12.93170340	      0.00000000	      0.00000000	      0.00000000	      0.00000000	     -0.00907570	      0.00000000	     -3.87870303	    -10.51123919	      6.22649426	     14.44338114
      0.05416667	     -1.82487823	     -9.23422678	    -11.07043569	     -0.82743971	      0.98041653	      0.32089543	    -25.34581591	      9.61859858	      9.91880427	    -10.94329780	      7.86792926	     -5.94218134	      6.50549636	     33.12684985	     -8.79803597	     10.16146778	    -13.14850796	      0.00000000	      0.00000000	      0.00000000	      0.00000000	     -0.00968317	      0.00000000	     -4.09493141	     -9.69894815	      6.51418030	     14.47965051
      0.05833333	     -1.84129360	     -9.20397032	    -11.04620736	     -0.82086500	      0.98027903	      0.32060348	    -25.16636964	      9.57583819	      9.95300397	    -11.77519293	      7.38209816	     -6.08010122	      6.55885171	     32.84038906	     -8.64930429	     10.27977453	    -13.25213251	      0.00000000	      0.00000000	      0.00000000	      0.00000000	     -0.01031405	      0.00000000	     -4.33185582	     -9.64999696	      6.43023303	     14.40357968
      0.06250000	     -1.86907059	     -9.13776518	    -10.97677185	     -0.81428094	      0.98017955	      0.32030170	    -24.99721309	      9.52735156	     10.12691963	    -12.53792866	      6.98225269	     -6.14318121	      6.55638535	     32.58630182	     -8.44278882	     10.46898299	    -13.38562402	      0.00000000	      0.00000000	      0.00000000	      0.00000000	     -0.01084503	      0.00000000	     -4.52766939	     -9.57282225	      6.27955123	     14.34097996
      0.06666667	     -2.01003841	     -9.00201203	    -10.94479714	     -0.80759033	      0.98004013	      0.32000297	    -24.54290397	      9.42882597	      9.99094780	    -13.57423790	      6.21743927	     -6.54831833	      6.74928885	     32.47953979	     -8.20968054	     10.46134437	    -13.57171523	      0.00000000	      0.00000000	      0.00000000	      0.00000000	     -0.01126215	      0.00000000	     -4.70695294	     -9.33263520	      6.13265148	     14.21308770
      0.07083333	     -2.02972194	     -8.90978567	    -10.84338899	     -0.80103346	      0.98013877	      0.31970675	    -24.33653797	      9.38591518	     10.22012496	    -14.37749911	      5.80269717	     -6.58574078	      6.75158362	     32.23751102	     -7.96870079	     10.67392451	    -13.74041220	      0.00000000	      0.00000000	      0.00000000	      0.00000000	     -0.01162839	      0.00000000	     -4.87167016	     -9.25524523	      5.94070395	     14.13801889
      0.07500000	     -2.08790447	     -8.76271857	    -10.81155612	     -0.79454954	      0.98028306	      0.31937252	    -23.84081264	      9.25570015	      9.99268641	    -15.58069066	      4.99646803	     -6.91264986	      6.80098028	     32.07637144	     -7.73102056	     10.60872648	    -13.97428991	      0.00000000	      0.00000000	      0.00000000	      0.00000000	     -0.01190039	      0.00000000	     -5.02997269	     -9.12575899	      5.76727622	     13.98102590
      0.07916667	     -2.19739069	     -8.52719827	    -10.71559658	     -0.78795065	      0.98037614	      0.31908635	    -23.34044570	      9.09004452	      9.88474798	    -16.66274365	      4.25689262	     -7.15802612	      6.94951059	     31.98264923	     -7.38094610	     10.64797468	    -14.21829360	      0.00000000	      0.00000000	      0.00000000	      0.00000000	     -0.01200665	      0.00000000	     -5.14460329	     -8.90160400	      5.45742994	     13.80512913
      0.08333333	     -2.56625339	     -8.10011141	    -10.48489330	     -0.78098209	      0.98010108	      0.31872436	    -22.52885897	      8.83239224	      9.49116684	    -17.73350251	      3.38882135	     -7.34498587	      7.95072738	     32.21703514	     -6.80624387	     10.73697866	    -14.51327229	      0.00000000	      0.00000000	      0.00000000	      0.00000000	     -0.01179220	      0.00000000	     -5.22402651	     -8.26503183	      4.98478237	     13.43554081
      0.08750000	     -2.49857804	     -7.99689025	    -10.38298838	     -0.77482494	      0.98063628	      0.31823297	    -22.10207744	      8.76604166	      9.48881847	    -18.99958725	      2.67728111	     -7.40736726	      8.01344380	     31.96694014	     -6.56017529	     10.79118378	    -14.80765829	      0.00000000	      0.00000000	      0.00000000	      0.00000000	     -0.01179025	      0.00000000	     -5.34003925	     -8.35278386	      4.80908682	     13.30062508
      0.09166667	     -2.67341867	     -7.46356215	    -10.10472485	     -0.76789214	      0.98054288	      0.31765101	    -21.31836792	      8.27217058	      8.51537489	    -20.22986729	      0.78962019	     -7.30252380	     13.85846331	     32.02529854	     -5.85166681	     10.72355411	    -15.11166109	      0.00000000	      0.00000000	      0.00000000	      0.00000000	     -0.01157458	      0.00000000	     -5.35138279	     -7.92524169	      4.21530969	     12.87808845
      0.09583333	     -2.60058643	     -7.24725561	     -9.98101856	     -0.76153629	      0.98112815	      0.31723670	    -20.83223649	      8.08585338	      8.34724429	    -21.55912686	      0.04158925	     -7.46080089	     13.71859026	     31.75915548	     -5.51651409	     10.66682572	    -15.38026733	      0.00000000	      0.00000000	      0.00000000	      0.00000000	     -0.01151724	      0.00000000	     -5.42234987	     -7.95754329	      3.90756860	     12.72747204
      0.10000000	     -2.58383902	     -6.87323918	     -9.79451970	     -0.75498518	      0.98165967	      0.31683931	    -20.24077291	      7.76799229	      8.00422336	    -22.91350072	     -0.76016244	     -7.54182894	     13.62242824	     31.56948444	     -5.01639667	     10.53805095	    -15.64528998	      0.00000000	      0.00000000	      0.00000000	      0.00000000	     -0.01125936	      0.00000000	     -5.44906750	     -7.85834131	      3.40924690	     12.51526905
